<svg width="64" height="66" xmlns="http://www.w3.org/2000/svg" xmlns:xlink="http://www.w3.org/1999/xlink" overflow="hidden"><defs><clipPath id="clip0"><rect x="608" y="327" width="64" height="66"/></clipPath></defs><g clip-path="url(#clip0)" transform="translate(-608 -327)"><path d="M671.899 352.683C671.899 352.79 671.899 353.003 672 353.217L671.798 352.79ZM669.163 345.533C669.478 346.05 669.687 346.567 669.896 347.083L669.582 347.083 668.954 347.083 668.954 345.74ZM629.406 345.533 629.406 346.151 628.988 346.667 627.942 346.667 628.151 345.945 628.57 345.945 628.674 345.636ZM611.669 345.117C611.253 345.842 610.94 346.671 610.524 347.5L610.524 346.464ZM629.928 345.017 630.033 345.017 631.291 345.328 631.291 345.95 630.243 345.95 629.928 345.535ZM628.565 344.283 629.726 344.283 629.726 344.903 629.198 345.213 628.565 345.317C628.565 345.317 628.565 344.387 628.565 344.283ZM626.886 344.283 627.942 344.283 626.569 346.15 626.041 345.839 626.146 345.113ZM630.56 344.183 631.089 344.492 630.666 344.8 630.349 344.492ZM629.188 343.25 629.827 343.875 629.188 344.083ZM627.202 343.05 628.558 343.05 628.558 343.36 628.767 343.36 628.767 344.083 626.889 344.083 626.158 343.877 626.367 343.36ZM613.032 342.933 613.032 343.141 613.032 343.453 612.088 344.597 611.669 345.117C612.088 344.389 612.508 343.661 613.032 342.933ZM625.098 340.55 625.94 340.757 625.624 341.793 624.783 342 624.257 340.964ZM663.929 338.067C664.454 338.69 664.979 339.209 665.504 339.832L664.874 340.767 662.668 340.767 662.458 340.351 663.929 339.624ZM623.21 337.233C623.314 337.233 623.21 337.862 623.21 337.862L621.642 337.967 621.328 337.652 622.478 337.338C622.478 337.338 623.105 337.233 623.21 337.233ZM622.061 335.467 623.213 335.467 623.213 335.985 622.899 336.4 621.328 336.4 621.328 335.778 621.328 335.674 622.061 335.674ZM640.318 328C641.682 328 642.941 328.104 644.306 328.311 644.935 328.311 645.46 328.415 646.089 328.519 646.194 328.519 646.404 328.519 646.509 328.622 652.28 329.66 657.527 332.253 661.724 335.987L661.304 336.713 659.835 337.232 659.206 337.958 659.415 338.684 660.15 338.788 660.57 339.929 661.934 339.41 662.144 340.966 661.724 340.966 660.674 340.862 659.415 341.07 658.261 342.626 656.582 342.937 656.372 344.389 657.107 344.493 656.897 345.426 655.218 345.115 653.644 345.426 653.329 346.256 653.644 348.02 654.484 348.434 656.058 348.434 657.002 348.331 657.317 347.501 658.891 345.53 659.94 345.737 660.989 344.804 661.199 345.53 663.718 347.19 663.403 347.605 662.248 347.501 662.668 348.123 663.403 348.331 664.242 348.02 664.242 346.982 664.557 346.775 664.242 346.464 662.563 345.53 662.144 344.389 663.508 344.389 664.032 344.804 665.187 345.841 665.292 347.086 666.551 348.331 666.97 346.567 667.81 346.049 668.02 347.605 668.859 348.434 670.538 348.434C670.853 349.264 671.167 350.094 671.377 351.028L671.272 351.131 668.649 351.131 667.075 349.99 665.396 350.198 665.396 351.131 664.872 351.131 664.347 350.716 661.514 349.99 661.514 348.227 657.841 348.434 656.687 349.057 655.218 349.057 654.589 349.057 652.805 349.99 652.805 351.754 649.237 354.347 649.552 355.384 650.286 355.384 650.077 356.421 649.552 356.629 649.552 359.326 652.595 362.853 653.959 362.853 654.064 362.645 656.477 362.645 657.107 362.023 658.576 362.023 659.31 362.749 661.304 362.956 661.094 365.653 663.298 369.595 662.144 371.877 662.248 372.914 663.193 373.848 663.193 376.441 664.452 378.1 664.452 380.175 665.501 380.175C659.52 387.436 650.496 392 640.318 392 622.585 392 608 377.789 608 360.156 608 360.156 608 360.052 608 360.052 608 358.081 608.105 356.214 608.42 354.347L608.525 354.451 609.154 354.865 609.259 355.28 608.42 355.488 608.315 356.525 609.259 356.525 610.518 356.421 611.148 355.695 610.413 355.488 610.099 355.073 609.574 354.139 609.259 352.895 608.839 352.998 608.734 352.998C609.154 351.131 609.784 349.264 610.518 347.501L610.518 347.812 610.518 349.264 611.882 349.99 611.882 352.48 613.141 354.658 614.191 354.865 614.401 354.036 613.141 352.169 612.827 350.301 613.561 350.301 613.876 352.272 615.345 354.347 615.03 354.451 615.135 354.969 615.66 354.969 615.24 355.695 616.394 357.355 619.227 358.081 619.227 357.666 620.382 357.77 620.277 358.6 621.116 358.703 622.48 359.118 624.474 361.297 626.887 361.504 627.097 363.475 625.418 364.616 625.418 366.379 625.103 367.52 627.622 370.528 627.727 371.566C627.727 371.566 628.671 371.773 628.776 371.773 628.881 371.773 630.77 373.225 630.77 373.225L630.77 378.723 631.399 378.93 630.979 381.42 632.134 382.872 631.924 385.465 633.393 388.058 635.282 389.718 637.275 389.718 637.38 389.096 636.016 387.955 636.121 387.332 636.331 386.606 636.436 385.88 635.387 385.88 634.967 385.258 635.701 384.532 635.806 383.909 634.967 383.702 635.072 383.183 636.331 382.976 638.22 382.042 638.849 380.901 640.843 378.308 640.423 376.337 641.053 375.3 642.941 375.3 644.096 374.366 644.515 370.425 645.984 368.765 646.194 367.624 644.935 367.209 644.096 365.861 641.263 365.861 638.954 364.927 638.849 363.371 638.115 362.126 636.016 362.023 634.862 360.259 633.813 359.741 633.813 360.259 631.819 360.363 631.189 359.43 629.196 359.015 627.517 360.882 625.208 360.467 624.894 360.467 624.789 357.562 622.9 357.251 623.634 355.903 623.425 355.073 620.906 356.733 619.332 356.525 618.808 355.28 619.122 354.036 619.962 352.48 621.956 351.442 625.838 351.442 625.838 352.687 627.202 353.31 627.097 351.339 628.042 350.301 630.035 349.057 630.14 348.123 632.134 346.049 634.337 344.908 634.127 344.804 635.492 343.455 636.121 343.559 636.331 343.87 636.856 343.248 636.961 343.248 636.436 343.144 635.806 342.937 635.806 342.314 636.121 342.107 636.856 342.107 637.17 342.211 637.38 342.729 637.8 342.729 637.8 342.626 637.905 342.729 638.849 342.522 638.954 342.107 639.584 342.211 639.584 342.729 639.059 343.144 639.059 343.663 640.948 344.181C640.948 344.181 640.948 344.181 640.948 344.285L641.367 344.181 641.367 343.455 639.899 342.833 639.899 342.418 641.053 342.003 641.053 340.862 639.899 340.136 639.794 338.269 638.115 339.099 637.485 339.099 637.59 337.647 635.282 337.128 634.337 337.854 634.337 340.032 632.658 340.551 631.924 342.003 631.189 342.107 631.189 340.24 629.615 340.032 628.776 339.514 628.461 338.373 631.294 336.713 632.763 336.298 632.868 337.232 633.708 337.128 633.708 336.713 634.547 336.609 634.547 336.402 634.232 336.298 634.127 335.78 635.177 335.676 635.806 335.053 636.016 334.846 638.115 334.535 639.059 335.365 636.646 336.609 639.689 337.336 640.108 336.298 641.472 336.298 641.997 335.468 641.053 335.157 641.053 334.016 638.01 332.668 635.911 332.979 634.757 333.601 634.757 335.053 633.498 334.846 633.393 334.016 634.547 332.979 632.344 332.875 631.819 333.083 631.504 333.809 632.344 333.913 632.134 334.742 630.77 334.742 630.56 335.365 628.566 335.365C628.566 335.365 628.566 334.224 628.461 334.224 628.356 334.224 630.035 334.224 630.035 334.224L631.189 333.083 630.56 332.771 629.72 333.601 628.251 333.498 627.412 332.357 625.523 332.357 623.634 333.705 625.418 333.705 625.523 334.224 625.103 334.639 626.992 334.742 627.307 335.468 625.103 335.365 624.999 334.846 623.634 334.535 622.9 334.12 621.536 334.12 621.326 334.12C626.677 330.282 633.183 328 640.318 328Z" fill="#4472C4" fill-rule="evenodd"/></g></svg>